<svg width="64" height="64" viewBox="0 0 64 64" fill="none" xmlns="http://www.w3.org/2000/svg">
<circle cx="32" cy="32" r="32" fill="#0074E0"/>
<path d="M45.0506 24.9738C39.3584 22.3227 31.1615 20.6515 23.477 21.2278C23.8755 18.6344 24.7862 16.8478 26.3801 16.502C28.5431 15.9833 30.8769 17.4241 33.0969 20.0175C34.5769 20.1904 36.2846 20.5362 37.4799 20.8243C33.3815 13.0442 27.917 8.72184 23.7616 10.3355C20.574 11.5458 18.9801 15.9833 19.1509 21.8617C15.0525 22.7262 11.8079 24.3398 9.75872 26.5874C9.64487 26.7027 9.41718 26.9909 9.53103 27.1638C9.58795 27.279 9.81564 27.1637 9.87256 27.1061C12.2633 25.4348 15.3371 24.5127 19.2648 23.9364C19.834 30.2758 22.4524 38.2865 26.8354 44.6836C24.4447 45.6633 22.4524 45.7209 21.314 44.5107C19.7771 42.897 19.834 40.1307 20.9724 36.8457C20.4032 35.4626 19.834 33.7913 19.4924 32.5811C14.8817 40.0154 13.9141 46.9888 17.3863 49.8127C20.0047 51.9451 24.5585 51.1959 29.5677 48.0838C32.3569 51.2535 35.3169 53.2706 38.3338 53.9621C38.5045 54.0198 38.8461 54.0198 38.9599 53.9045C39.0168 53.7892 38.7891 53.674 38.7322 53.6164C36.1138 52.3485 33.78 50.1585 31.3323 46.9312C36.4553 43.3004 41.9768 36.961 45.2783 29.93C47.2706 31.5437 48.3521 33.2726 47.8967 34.8287C47.2706 36.961 44.8798 38.2865 41.5214 38.9781C40.6107 40.1883 39.4722 41.5139 38.6184 42.436C47.2706 42.7241 53.7597 40.1307 54.4428 35.6931C54.9551 32.2929 51.9951 28.7198 46.8152 25.8959C48.1244 21.8617 48.3521 18.2309 47.4413 15.2918C47.3844 15.1189 47.2706 14.7731 47.0998 14.7731C46.986 14.7731 46.986 15.0036 46.986 15.1189C47.2706 18.0581 46.5306 21.1701 45.0506 24.9738ZM29.1123 43.6462C25.4693 37.7102 23.3632 30.6792 23.3632 23.5906C30.3077 23.3601 37.3661 25.0314 43.3999 28.5469C40.0984 34.771 35.1461 40.1307 29.1123 43.6462Z" fill="white"/>
</svg>
