<svg width="64" height="64" viewBox="0 0 64 64" fill="none" xmlns="http://www.w3.org/2000/svg">
<path opacity="0.05" d="M63.9976 31.7939C63.9987 31.9375 63.9987 32.0798 63.9976 32.2234C63.9976 32.1481 63.9999 32.0739 63.9999 31.9987C63.9999 31.9316 63.9976 31.8634 63.9976 31.7939Z" fill="#D9D9D9"/>
<path opacity="0.05" d="M37.3245 0.441406C41.1022 1.07905 44.7552 2.39788 48.0673 4.3167C44.8081 2.42023 41.1833 1.08611 37.3245 0.441406Z" fill="#D9D9D9"/>
<path opacity="0.05" d="M63.9741 33.2402C63.7977 37.6238 62.7231 41.9708 60.8254 45.9167C62.6902 42.0591 63.8013 37.7696 63.9741 33.2402Z" fill="#D9D9D9"/>
<path opacity="0.05" d="M32.0197 64.0001C32.0538 64.0001 32.0867 63.9989 32.1208 63.9989C31.995 63.9989 31.868 63.9978 31.7422 63.9966C31.8351 63.9978 31.9268 64.0001 32.0197 64.0001Z" fill="#D9D9D9"/>
<path opacity="0.05" d="M56.8596 52.1539C57.5098 51.3527 58.1212 50.5198 58.6938 49.6562C58.421 50.0657 58.1388 50.4704 57.8449 50.8668C57.5286 51.3045 57.1994 51.7327 56.8596 52.1539Z" fill="#D9D9D9"/>
<path opacity="0.05" d="M32.0195 0C31.949 0 31.8796 0.00235294 31.8091 0.00235294C31.9173 0.00117647 32.0266 0.00117647 32.1348 0.00117647C32.096 0.00117647 32.0583 0 32.0195 0Z" fill="#D9D9D9"/>
<path opacity="0.05" d="M33.0142 63.9836C34.1229 63.9494 35.2175 63.8589 36.2957 63.7153C35.7301 63.7894 35.1634 63.8483 34.5932 63.8906C34.0676 63.9353 33.5409 63.9659 33.0142 63.9836Z" fill="#D9D9D9"/>
<path opacity="0.05" d="M49.2325 58.9576C46.0744 60.9741 42.5683 62.4447 38.9082 63.2529C42.6859 62.4235 46.212 60.9271 49.3595 58.8906C49.3595 58.8859 49.3595 58.8812 49.3595 58.8765C49.3159 58.9047 49.2748 58.9318 49.2325 58.9576Z" fill="#D9D9D9"/>
<path opacity="0.05" d="M51.1172 57.6694C52.0507 56.9729 52.9431 56.2258 53.7944 55.4341C52.9431 56.2235 52.0496 56.9647 51.1184 57.6564C51.1184 57.6611 51.1172 57.6658 51.1172 57.6694Z" fill="#D9D9D9"/>
<path opacity="0.05" d="M28.2937 63.7822C28.6135 63.8199 28.9357 63.8505 29.259 63.8775C29.1461 63.8669 29.0321 63.8575 28.9192 63.8458C28.7099 63.8269 28.5018 63.8058 28.2937 63.7822Z" fill="#D9D9D9"/>
<path opacity="0.05" d="M10.5127 55.6836C10.8878 56.0248 11.2699 56.3565 11.6602 56.6789C11.4686 56.5201 11.2793 56.3577 11.0912 56.1942C10.896 56.0259 10.7043 55.8554 10.5127 55.6836Z" fill="#D9D9D9"/>
<path d="M11.9613 7.03898C17.3627 2.68604 24.2032 0.169566 31.1531 0.0119187C31.166 0.0119187 31.179 0.0107422 31.1919 0.0107422C24.215 0.149566 17.3427 2.66957 11.9202 7.0378L11.9578 7.08133C11.966 7.07545 11.9731 7.06839 11.9813 7.06251L11.9613 7.03898Z" fill="#F16519"/>
<path d="M31.6504 0.00345256C31.6975 0.00227609 31.7433 0.00345256 31.7892 0.00345256C31.7962 0.00345256 31.8021 0.00345256 31.8092 0.00345256C31.741 0.00345256 31.6728 0.00345256 31.6046 0.00462903C31.4729 0.0058055 31.3424 0.00933492 31.2107 0.0116879C31.2683 0.0105114 31.3259 0.0105114 31.3824 0.00933492C31.4717 0.00698198 31.5611 0.00345256 31.6504 0.00345256Z" fill="#F16519"/>
<path d="M32.7144 9.24365C33.9171 9.2813 35.1176 9.41659 36.3004 9.65071C39.8018 10.3237 43.1339 11.8578 45.9451 14.0401L45.9627 14.0201C43.1574 11.8507 39.8359 10.3237 36.3463 9.65306C35.1493 9.41542 33.9336 9.28012 32.7144 9.24365Z" fill="#F16519"/>
<path d="M17.9847 14.0225L11.9813 7.0625C11.973 7.06838 11.9648 7.07544 11.9578 7.08132L17.9611 14.0401C17.9682 14.0343 17.9764 14.0284 17.9847 14.0225Z" fill="#F16519"/>
<path d="M32.1453 0.000976562C32.1418 0.000976562 32.1383 0.000976562 32.1347 0.000976562C32.0266 0.000976562 31.9172 0.000976562 31.8091 0.00215303C31.802 0.00215303 31.7961 0.00215303 31.7891 0.00215303C31.9078 0.000976562 32.0266 0.000976562 32.1453 0.000976562Z" fill="#F16519"/>
<path d="M31.3823 0.00830078C31.3247 0.00947725 31.2671 0.00947725 31.2107 0.0106537C31.2048 0.0106537 31.1978 0.0106537 31.1919 0.0106537C31.1789 0.0106537 31.166 0.0118302 31.1531 0.0118302C31.2295 0.0106537 31.3059 0.00947725 31.3823 0.00830078Z" fill="#F16519"/>
<path d="M52.0366 7.03869C50.9585 6.17046 49.825 5.37634 48.6458 4.65869C49.8286 5.37987 50.9596 6.17752 52.0343 7.04222L52.0366 7.03869Z" fill="#F16519"/>
<path d="M32.879 0.0115648C33.3811 0.024506 33.8819 0.0492119 34.3816 0.0868589C34.5968 0.10333 34.8108 0.122153 35.0248 0.142153C35.3622 0.173918 35.6985 0.208035 36.0335 0.250388C34.7978 0.0939177 33.5504 0.00921186 32.3005 0.000976562C32.4452 0.00215303 32.5886 0.00568244 32.7332 0.00921186C32.7826 0.0103883 32.8308 0.0103883 32.879 0.0115648Z" fill="#F16519"/>
<path d="M17.9846 14.0224L18.0034 14.0436C22.1444 10.7812 27.4529 9.0883 32.7156 9.24359C27.4494 9.07771 22.1327 10.7636 17.9846 14.0224Z" fill="#F16519"/>
<path d="M51.9873 7.03758L45.9639 14.0199C45.9745 14.0282 45.9851 14.0352 45.9945 14.0435L52.0343 7.04229C50.9597 6.17758 49.8286 5.38111 48.6458 4.65876C48.4682 4.55052 48.2895 4.44464 48.1096 4.33994C48.0955 4.3317 48.0814 4.32347 48.0685 4.31523C44.7564 2.39641 41.1033 1.07758 37.3256 0.439937C37.2281 0.423466 37.1305 0.406996 37.0329 0.391702C36.9282 0.375231 36.8224 0.359937 36.7166 0.343466C36.5367 0.317584 36.358 0.291702 36.1769 0.268172C36.1299 0.26229 36.0817 0.255231 36.0347 0.249349C35.7008 0.206996 35.3633 0.172878 35.0259 0.141113C41.1974 0.731702 47.1561 3.14582 51.9873 7.03758Z" fill="#F16519"/>
<path d="M31.6504 0.00345256C31.561 0.00345256 31.4717 0.00698198 31.3823 0.00815845C31.5175 0.0058055 31.6539 0.00345256 31.7891 0.00345256C31.7433 0.00345256 31.6962 0.00227609 31.6504 0.00345256Z" fill="#F16519"/>
<path d="M11.9612 7.03878L11.9812 7.06231C17.2544 2.81407 23.9021 0.20466 31.153 0.0117188C24.2031 0.169366 17.3626 2.68701 11.9612 7.03878Z" fill="#F16519"/>
<path d="M32.7343 0.00921186C32.5897 0.00568244 32.4463 0.00215303 32.3016 0.000976562C32.2499 0.000976562 32.197 0.00215303 32.1453 0.00215303C32.3416 0.00215303 32.538 0.00450597 32.7343 0.00921186Z" fill="#F16519"/>
<path d="M32.8792 0.0117188C33.3835 0.0246599 33.8832 0.0505423 34.3818 0.0870129C33.8821 0.0493658 33.3812 0.0246599 32.8792 0.0117188Z" fill="#F16519"/>
<path d="M35.0259 0.142441C34.8119 0.122441 34.5968 0.103618 34.3828 0.0871473C33.8854 0.0506767 33.3846 0.0247943 32.8802 0.0118532C32.832 0.0106767 32.7826 0.0106767 32.7344 0.00950023C32.538 0.00479435 32.3429 0.00244141 32.1453 0.00244141C32.0266 0.00244141 31.9078 0.00244141 31.7891 0.00361788C31.6527 0.00479435 31.5175 0.00597082 31.3823 0.00832376C31.3058 0.00950023 31.2294 0.0106767 31.153 0.0118532C23.9021 0.204794 17.2544 2.81421 11.9812 7.06244L17.9846 14.0224C22.1326 10.7636 27.4494 9.07774 32.7144 9.24479C33.9325 9.28127 35.1482 9.41656 36.3463 9.65421C39.8359 10.3248 43.1574 11.8519 45.9628 14.0213L51.9861 7.03891C47.1561 3.14597 41.1974 0.731853 35.0259 0.142441Z" fill="#F16519"/>
<path d="M9.625 54.8457C9.91541 55.1304 10.2105 55.4092 10.5127 55.6822C10.2505 55.4445 9.99419 55.1998 9.7414 54.9539L9.625 54.8457Z" fill="#353E49"/>
<path d="M60.4952 46.5811C60.1507 47.254 59.7815 47.9128 59.3923 48.5575C59.7827 47.9116 60.1519 47.2528 60.4952 46.5811Z" fill="#353E49"/>
<path d="M13.0512 57.7637L13.05 57.7672C13.3099 57.959 13.5744 58.1472 13.8402 58.3307C13.8402 58.3296 13.8402 58.3284 13.8402 58.3272C13.5733 58.1425 13.3099 57.9554 13.0512 57.7637Z" fill="#353E49"/>
<path d="M56.4483 52.6504C56.0427 53.1304 55.6241 53.5998 55.1914 54.0551C55.6241 53.5998 56.0427 53.1316 56.4483 52.6504Z" fill="#353E49"/>
<path d="M11.6614 56.6787C11.8083 56.8011 11.9565 56.9199 12.1058 57.0387L12.0647 57.0034C11.9283 56.8964 11.7942 56.7881 11.6614 56.6787Z" fill="#353E49"/>
<path d="M10.7384 55.8823L9.74023 54.9541C9.9942 55.2012 10.2505 55.4447 10.5115 55.6823C10.702 55.8553 10.8948 56.0259 11.09 56.1929C11.2781 56.3576 11.4674 56.5188 11.6591 56.6776C11.7919 56.787 11.9271 56.8953 12.0612 57.0023L10.7384 55.8823Z" fill="#353E49"/>
<path d="M47.623 15.5141C52.4895 20.1024 55.1467 26.8741 54.6446 33.5541C54.4259 36.8635 53.4642 40.1306 51.8405 43.0376C50.7411 44.8329 49.4184 46.4424 48.2356 47.7059C48.2438 47.7165 48.2532 47.7294 48.2615 47.74C49.4513 46.4729 50.7835 44.8541 51.891 43.0459C53.5159 40.1388 54.4765 36.8706 54.6964 33.56C55.1972 26.8776 52.54 20.1047 47.6736 15.5165L53.6923 8.52706C53.6829 8.51882 53.6735 8.50941 53.6641 8.5L47.623 15.5141Z" fill="#353E49"/>
<path d="M63.9917 31.3201C63.9894 31.2224 63.987 31.1236 63.9847 31.026C63.9788 30.8401 63.9718 30.653 63.9635 30.4683C63.96 30.386 63.9553 30.3036 63.9506 30.2213C63.94 30.0342 63.9282 29.8483 63.9153 29.6624C63.9083 29.5648 63.9 29.4671 63.893 29.3695C63.88 29.2119 63.8659 29.0542 63.8506 28.8966C63.8365 28.7471 63.8201 28.5977 63.8036 28.4495C63.793 28.3542 63.7825 28.2601 63.7707 28.1648C63.746 27.9542 63.7166 27.7448 63.6872 27.5354C63.6061 26.9613 63.5085 26.3883 63.3945 25.8189C62.1164 19.1989 58.6468 13.0624 53.711 8.50244L53.6898 8.52715L47.6711 15.5166C52.5376 20.1048 55.1959 26.8789 54.6939 33.5601C54.4752 36.8707 53.5134 40.1377 51.8886 43.046C50.781 44.853 49.4489 46.4719 48.259 47.7401C48.5918 48.1766 48.9668 48.7636 49.3337 49.4742C50.3566 51.4542 51.3136 54.3883 51.1173 57.6566C52.0485 56.9648 52.942 56.2224 53.7933 55.4342C53.838 55.3919 53.8838 55.3507 53.9285 55.3083C54.0602 55.1848 54.1895 55.0601 54.3177 54.9342C54.4023 54.8519 54.4881 54.7695 54.5716 54.686C54.6504 54.6071 54.7292 54.5271 54.8079 54.4471C54.9279 54.3248 55.0478 54.2036 55.1666 54.0801C55.1748 54.0719 55.1818 54.0636 55.1901 54.0542C55.6227 53.5989 56.0413 53.1295 56.4469 52.6495C56.5539 52.5236 56.6609 52.3977 56.7644 52.2695C56.7961 52.2307 56.8267 52.1919 56.8585 52.153C57.1971 51.733 57.5263 51.3048 57.8437 50.866C58.1377 50.4695 58.4187 50.066 58.6926 49.6554C58.7585 49.5554 58.8243 49.4566 58.889 49.3566C58.9407 49.2766 58.9913 49.1966 59.043 49.1154C59.1488 48.9472 59.2546 48.7801 59.3581 48.6095C59.3687 48.5919 59.3793 48.573 59.391 48.5554C59.7814 47.9107 60.1494 47.2519 60.4939 46.5789C60.5421 46.4848 60.5879 46.3895 60.635 46.2942C60.6985 46.1671 60.762 46.0413 60.8243 45.9142C62.7231 41.9671 63.7966 37.6213 63.9729 33.2377C63.9741 33.2166 63.9741 33.1966 63.9753 33.1754C63.9835 32.9589 63.9882 32.7436 63.9929 32.5271C63.9941 32.426 63.9964 32.3236 63.9964 32.2213C63.9976 32.0777 63.9976 31.9354 63.9964 31.7919C63.9964 31.6366 63.9953 31.4777 63.9917 31.3201Z" fill="#424D5B"/>
<path d="M5.93789 50.5224C3.838 47.5671 2.22839 44.24 1.22548 40.6588C1.20196 40.5765 1.1808 40.4941 1.15846 40.4118C1.11613 40.2576 1.07381 40.1023 1.03383 39.9471C0.437726 37.6365 0.102637 35.2588 0.0509043 32.8647C0.0462013 32.6988 0.0450256 32.5329 0.0438498 32.3659C0.0438498 32.3223 0.0414983 32.2788 0.0414983 32.2353C0.0414983 32.2282 0.0414983 32.2223 0.0414983 32.2153C0.0414983 32.1435 0.0391468 32.0718 0.0391468 32C0.0391468 31.9259 0.0414983 31.8518 0.0414983 31.7776C0.0450256 29.9529 0.213158 28.1353 0.536489 26.3447C0.541192 26.3176 0.547071 26.2906 0.551774 26.2635C0.589398 26.0576 0.628198 25.8518 0.669349 25.6471C2.01911 18.94 5.46641 12.9929 10.2952 8.51765L10.2799 8.5L9.97659 8.78941C3.61578 14.7694 -0.114877 23.4612 0.00269856 32.2282C0.00622582 40.4529 3.39709 48.5459 9.13711 54.3918L9.62504 54.8447C8.26705 53.5188 7.03369 52.0694 5.93789 50.5224Z" fill="#353E49"/>
<path d="M0.67041 25.6473C1.97785 19.2473 5.26289 13.2614 10.02 8.79198L10.301 8.52375L10.2963 8.51904C5.46747 12.9932 2.02135 18.9402 0.67041 25.6473Z" fill="#353E49"/>
<path d="M0.0390625 32.0002C0.0390625 32.072 0.0414154 32.1437 0.0414154 32.2155C0.0390625 32.0696 0.0414154 31.9237 0.0414154 31.7778C0.0414154 31.8519 0.0390625 31.9261 0.0390625 32.0002Z" fill="#353E49"/>
<path d="M5.938 50.5222C3.824 47.534 2.22145 44.1834 1.22559 40.6587C2.2285 44.2399 3.83928 47.5669 5.938 50.5222Z" fill="#353E49"/>
<path d="M1.03371 39.9471C0.452888 37.6742 0.115448 35.3036 0.0507812 32.8647C0.102514 35.2589 0.437603 37.6365 1.03371 39.9471Z" fill="#353E49"/>
<path d="M5.93799 50.5225C7.03261 52.0707 8.26715 53.5189 9.62397 54.846L9.74037 54.9542C8.34475 53.5966 7.06906 52.1142 5.93799 50.5225Z" fill="#353E49"/>
<path d="M12.0635 57.0034L12.1046 57.0387C12.415 57.2869 12.729 57.5305 13.0488 57.7669L13.0499 57.7634C12.716 57.5164 12.3868 57.2634 12.0635 57.0034Z" fill="#353E49"/>
<path d="M0.0427246 31.7777C0.0556579 29.9247 0.22379 28.1094 0.537716 26.3447C0.213208 28.1341 0.0450761 29.953 0.0427246 31.7777Z" fill="#353E49"/>
<path d="M0.0427246 32.2353C0.0427246 32.2789 0.0439011 32.3224 0.0450775 32.3659C0.0450775 32.3153 0.0439011 32.2659 0.0427246 32.2153C0.0427246 32.2224 0.0427246 32.2283 0.0427246 32.2353Z" fill="#353E49"/>
<path fill-rule="evenodd" clip-rule="evenodd" d="M11.9249 21.2895C13.0642 19.1483 14.5727 17.193 16.3222 15.5142L16.3217 15.5135C14.5724 17.1934 13.0641 19.1473 11.9249 21.2895C11.9249 21.2895 11.9249 21.2895 11.9249 21.2895ZM10.3029 8.52304L10.3024 8.5224L10.0214 8.79064C5.26313 13.2612 1.97808 19.2471 0.670644 25.6471C0.628317 25.8518 0.590693 26.0577 0.553069 26.2636C0.550718 26.2771 0.548073 26.2906 0.545428 26.3042C0.542782 26.3177 0.540136 26.3312 0.537784 26.3448C0.222683 28.1095 0.0557264 29.9247 0.0427932 31.7777C0.0427932 31.8263 0.0425319 31.8749 0.0422706 31.9236C0.041748 32.0208 0.0412255 32.1181 0.0427932 32.2153C0.0427932 32.2648 0.0439172 32.3131 0.0450662 32.3626L0.0451447 32.3659C0.0459297 32.4213 0.0464527 32.4768 0.0469761 32.5324C0.0480204 32.6432 0.0490663 32.7542 0.0521992 32.8648C0.116865 35.3036 0.454306 37.6742 1.03513 39.9471C1.07082 40.0858 1.10839 40.2235 1.14616 40.362L1.15976 40.4118C1.16721 40.4393 1.17452 40.4667 1.18184 40.4942C1.19647 40.5491 1.2111 40.604 1.22677 40.6589C2.22381 44.1824 3.82518 47.533 5.93918 50.5224C7.07026 52.1142 8.34477 53.5965 9.74156 54.9542L10.7398 55.8824L12.0637 57.0036C12.3882 57.2624 12.7162 57.5165 13.0513 57.7636C13.3111 57.9553 13.5745 58.1424 13.8402 58.3271C13.7215 57.2448 13.7462 56.18 13.8731 55.16C14.1483 52.9495 14.8996 50.9518 15.6767 49.4436C15.8907 49.0295 16.1047 48.653 16.3128 48.3189C15.1053 47.1271 13.6227 45.4495 12.1989 43.1448C8.41059 36.5319 8.32006 27.9813 11.9661 21.2942C13.1054 19.1519 14.6139 17.1966 16.3645 15.5166L10.3235 8.50244L10.3029 8.52304ZM12.6632 43.9249C13.8314 45.6855 15.0131 47.0401 16.0257 48.0652C15.0121 47.0401 13.8312 45.6855 12.6632 43.9249Z" fill="#424D5B"/>
<path d="M32.4899 40.7058C37.7496 40.7058 42.0135 36.4657 42.0135 31.2352C42.0135 26.0048 37.7496 21.7646 32.4899 21.7646C27.2302 21.7646 22.9663 26.0048 22.9663 31.2352C22.9663 36.4657 27.2302 40.7058 32.4899 40.7058Z" fill="white"/>
<path d="M15.6765 59.5293L15.6707 59.5257C15.6707 59.5269 15.6707 59.5281 15.6707 59.5293C19.58 61.8305 23.6846 63.1857 27.7821 63.7199C23.4059 63.1399 19.3084 61.674 15.6765 59.5093C15.6765 59.5152 15.6765 59.5222 15.6765 59.5293Z" fill="white"/>
<path d="M49.2327 58.9578C49.275 58.932 49.3174 58.9049 49.3597 58.8778C49.3597 58.8767 49.3597 58.8755 49.3597 58.8755C49.3162 58.9025 49.275 58.9308 49.2327 58.9578Z" fill="white"/>
<path d="M15.6768 59.5093C19.3087 61.674 23.405 63.1399 27.7823 63.7199C27.9281 63.7387 28.0727 63.7575 28.2185 63.774C28.2432 63.7775 28.2691 63.7799 28.2937 63.7822C28.5018 63.8058 28.7111 63.8269 28.9192 63.8469C24.255 63.3869 19.7014 61.8952 15.6768 59.5093Z" fill="white"/>
<path d="M47.1178 48.9411C47.0319 48.8117 46.9294 48.6764 46.8377 48.5505C46.7554 48.4388 46.6743 48.3258 46.5884 48.2152C44.719 45.8211 42.0641 43.7576 39.0142 42.7046C38.1912 42.4211 37.3118 42.4776 36.5228 42.8729C36.5193 42.8752 36.5158 42.8764 36.5122 42.8788C35.0179 43.6282 34.1278 43.847 32.4888 43.8458C30.851 43.847 30.1938 43.6282 28.7006 42.8788C28.697 42.8764 28.6935 42.8752 28.69 42.8729C27.9022 42.4764 27.0228 42.4199 26.1986 42.7046C23.1498 43.7576 20.4938 45.8211 18.6255 48.2152C18.5185 48.354 18.4151 48.4952 18.3128 48.6364L18.3222 48.647C18.0965 48.9564 17.8907 49.2776 17.7014 49.607C15.7802 52.9529 15.6768 57.1482 15.6768 59.5093C19.7002 61.8952 24.255 63.387 28.9181 63.847C36.1489 64.5235 43.2951 62.6693 49.2315 58.9576C49.2738 58.9305 49.3162 58.9023 49.3585 58.8752C49.3303 56.2929 49.2024 52.0952 47.1178 48.9411Z" fill="white"/>
<path d="M15.532 59.4233C15.5779 59.4504 15.6237 59.4775 15.6708 59.5057C15.6249 59.4775 15.5779 59.4516 15.532 59.4233Z" fill="#D9D9D9"/>
<path d="M15.6765 59.5094C15.6742 59.5082 15.6718 59.507 15.6707 59.5059C15.6707 59.5129 15.6707 59.52 15.6707 59.5259L15.6765 59.5294C15.6765 59.5223 15.6765 59.5153 15.6765 59.5094Z" fill="#D9D9D9"/>
<path d="M49.3584 58.8778C49.4184 58.8402 49.4784 58.8025 49.5384 58.7649C49.5384 58.7625 49.5384 58.7602 49.5384 58.7578C49.4784 58.7966 49.4184 58.8366 49.3584 58.8755C49.3584 58.8766 49.3584 58.8766 49.3584 58.8778Z" fill="#D9D9D9"/>
</svg>
