<svg width="64" height="64" viewBox="0 0 64 64" fill="none" xmlns="http://www.w3.org/2000/svg">
<path opacity="0.05" d="M63.9976 31.7941C63.9987 31.9376 63.9987 32.0799 63.9976 32.2235C63.9976 32.1482 63.9999 32.0741 63.9999 31.9988C63.9999 31.9317 63.9976 31.8635 63.9976 31.7941Z" fill="white"/>
<path opacity="0.05" d="M63.9743 33.24C63.798 37.6235 62.7233 41.9706 60.8257 45.9165C62.6904 42.0588 63.8015 37.7694 63.9743 33.24Z" fill="white"/>
<path opacity="0.05" d="M56.8599 52.1541C57.5101 51.353 58.1214 50.52 58.694 49.6565C58.4213 50.0659 58.1391 50.4706 57.8451 50.8671C57.5289 51.3047 57.1997 51.733 56.8599 52.1541Z" fill="white"/>
<path opacity="0.05" d="M51.1172 57.6694C52.0507 56.9729 52.9431 56.2258 53.7944 55.4341C52.9431 56.2235 52.0496 56.9647 51.1184 57.6564C51.1184 57.6611 51.1172 57.6658 51.1172 57.6694Z" fill="white"/>
<path opacity="0.05" d="M10.5127 55.6836C10.8878 56.0248 11.2699 56.3565 11.6602 56.6789C11.4686 56.5201 11.2793 56.3577 11.0912 56.1942C10.896 56.0259 10.7043 55.8554 10.5127 55.6836Z" fill="white"/>
<path opacity="0.05" d="M37.3247 0.441162C41.1024 1.07881 44.7555 2.39763 48.0675 4.31646C44.8084 2.41999 41.1835 1.08587 37.3247 0.441162Z" fill="white"/>
<path opacity="0.05" d="M32.0195 0C31.949 0 31.8796 0.00235294 31.8091 0.00235294C31.9173 0.00117647 32.0266 0.00117647 32.1348 0.00117647C32.096 0.00117647 32.0583 0 32.0195 0Z" fill="white"/>
<path d="M11.9611 7.03886C17.3625 2.68592 24.203 0.169444 31.1529 0.0117966C31.1658 0.0117966 31.1787 0.0106201 31.1917 0.0106201C24.2148 0.149444 17.3425 2.66944 11.9199 7.03768L11.9575 7.08121C11.9658 7.07533 11.9728 7.06827 11.9811 7.06239L11.9611 7.03886Z" fill="#F97316"/>
<path d="M31.6502 0.00357463C31.6972 0.00239816 31.7431 0.00357463 31.7889 0.00357463C31.796 0.00357463 31.8019 0.00357463 31.8089 0.00357463C31.7407 0.00357463 31.6725 0.00357463 31.6043 0.0047511C31.4726 0.00592758 31.3421 0.00945699 31.2104 0.0118099C31.2681 0.0106335 31.3257 0.0106335 31.3821 0.00945699C31.4715 0.00710405 31.5608 0.00357463 31.6502 0.00357463Z" fill="#F97316"/>
<path d="M32.1453 0.00109863C32.1418 0.00109863 32.1383 0.00109863 32.1347 0.00109863C32.0266 0.00109863 31.9172 0.00109863 31.8091 0.0022751C31.802 0.0022751 31.7961 0.0022751 31.7891 0.0022751C31.9078 0.00109863 32.0266 0.00109863 32.1453 0.00109863Z" fill="#F97316"/>
<path d="M31.3821 0.00817871C31.3245 0.00935518 31.2669 0.00935518 31.2104 0.0105317C31.2046 0.0105317 31.1975 0.0105317 31.1916 0.0105317C31.1787 0.0105317 31.1658 0.0117081 31.1528 0.0117081C31.2293 0.0105317 31.3057 0.00935518 31.3821 0.00817871Z" fill="#F97316"/>
<path d="M52.0369 7.03881C50.9587 6.17058 49.8253 5.37646 48.646 4.65881C49.8288 5.37999 50.9599 6.17764 52.0345 7.04234L52.0369 7.03881Z" fill="#F97316"/>
<path d="M32.8793 0.0116869C33.3813 0.0246281 33.8822 0.0493339 34.3819 0.086981C34.597 0.103452 34.811 0.122275 35.025 0.142275C35.3624 0.17404 35.6987 0.208158 36.0338 0.250511C34.7981 0.0940399 33.5506 0.00933393 32.3008 0.00109863C32.4454 0.0022751 32.5888 0.00580452 32.7335 0.00933393C32.7828 0.0105104 32.831 0.0105104 32.8793 0.0116869Z" fill="#F97316"/>
<path d="M51.9873 7.03771L45.9639 14.0201C45.9745 14.0283 45.9851 14.0354 45.9945 14.0436L52.0343 7.04241C50.9597 6.17771 49.8286 5.38124 48.6458 4.65888C48.4682 4.55065 48.2895 4.44477 48.1096 4.34006C48.0955 4.33183 48.0814 4.32359 48.0685 4.31535C44.7564 2.39653 41.1033 1.07771 37.3256 0.440059C37.2281 0.423588 37.1305 0.407118 37.0329 0.391824C36.9282 0.375353 36.8224 0.360059 36.7166 0.343588C36.5367 0.317706 36.358 0.291824 36.1769 0.268294C36.1299 0.262412 36.0817 0.255353 36.0347 0.249471C35.7008 0.207118 35.3633 0.173 35.0259 0.141235C41.1974 0.731824 47.1561 3.14594 51.9873 7.03771Z" fill="#F97316"/>
<path d="M31.6504 0.00357463C31.561 0.00357463 31.4717 0.00710405 31.3823 0.00828052C31.5175 0.00592758 31.6539 0.00357463 31.7891 0.00357463C31.7433 0.00357463 31.6962 0.00239816 31.6504 0.00357463Z" fill="#F97316"/>
<path d="M11.9614 7.0389L11.9814 7.06243C17.2547 2.81419 23.9024 0.204782 31.1532 0.0118408C24.2033 0.169488 17.3628 2.68714 11.9614 7.0389Z" fill="#F97316"/>
<path d="M32.7346 0.00933393C32.5899 0.00580452 32.4465 0.0022751 32.3019 0.00109863C32.2502 0.00109863 32.1972 0.0022751 32.1455 0.0022751C32.3419 0.0022751 32.5382 0.00462805 32.7346 0.00933393Z" fill="#F97316"/>
<path d="M32.8789 0.0118408C33.3833 0.024782 33.883 0.0506644 34.3815 0.087135C33.8818 0.0494879 33.381 0.024782 32.8789 0.0118408Z" fill="#F97316"/>
<path d="M35.0262 0.142319C34.8122 0.122319 34.597 0.103496 34.383 0.0870253C33.8857 0.0505547 33.3848 0.0246723 32.8804 0.0117311C32.8322 0.0105546 32.7828 0.0105546 32.7346 0.00937816C32.5383 0.00467228 32.3431 0.00231934 32.1456 0.00231934C32.0268 0.00231934 31.9081 0.00231934 31.7893 0.00349581C31.6529 0.00467228 31.5177 0.00584875 31.3825 0.00820169C31.3061 0.00937816 31.2297 0.0105546 31.1532 0.0117311C23.9024 0.204672 17.2547 2.81408 11.9814 7.06232L17.9848 14.0223C22.1329 10.7635 27.4496 9.07762 32.7146 9.24468C33.9327 9.28115 35.1484 9.41644 36.3465 9.65409C39.8362 10.3247 43.1577 11.8517 45.963 14.0211L51.9864 7.03879C47.1564 3.14585 41.1977 0.731731 35.0262 0.142319Z" fill="#F97316"/>
<path d="M32.7144 9.24353C33.9171 9.28118 35.1176 9.41647 36.3004 9.65059C39.8018 10.3235 43.1339 11.8576 45.9451 14.04L45.9627 14.02C43.1574 11.8506 39.8359 10.3235 36.3463 9.65294C35.1493 9.4153 33.9336 9.28 32.7144 9.24353Z" fill="#F97316"/>
<path d="M17.9844 14.0224L11.981 7.06238C11.9728 7.06826 11.9646 7.07532 11.9575 7.0812L17.9609 14.04C17.968 14.0341 17.9762 14.0283 17.9844 14.0224Z" fill="#F97316"/>
<path d="M17.9849 14.0224L18.0037 14.0436C22.1447 10.7812 27.4532 9.0883 32.7158 9.24359C27.4497 9.07771 22.1329 10.7636 17.9849 14.0224Z" fill="#F97316"/>
<path d="M9.625 54.8459C9.91541 55.1307 10.2105 55.4095 10.5127 55.6824C10.2505 55.4448 9.99419 55.2001 9.7414 54.9542L9.625 54.8459Z" fill="white"/>
<path d="M60.4949 46.5812C60.1505 47.2541 59.7813 47.9129 59.3921 48.5576C59.7824 47.9118 60.1516 47.2529 60.4949 46.5812Z" fill="white"/>
<path d="M13.051 57.7635L13.0498 57.7671C13.3096 57.9588 13.5742 58.1471 13.8399 58.3306C13.8399 58.3294 13.8399 58.3283 13.8399 58.3271C13.573 58.1424 13.3096 57.9553 13.051 57.7635Z" fill="white"/>
<path d="M56.4483 52.6506C56.0427 53.1306 55.6241 53.6 55.1914 54.0553C55.6241 53.6 56.0427 53.1318 56.4483 52.6506Z" fill="white"/>
<path d="M11.6616 56.6788C11.8086 56.8012 11.9567 56.92 12.1061 57.0388L12.0649 57.0035C11.9285 56.8965 11.7945 56.7882 11.6616 56.6788Z" fill="white"/>
<path d="M10.7384 55.8823L9.74023 54.9541C9.9942 55.2012 10.2505 55.4447 10.5115 55.6823C10.702 55.8553 10.8948 56.0259 11.09 56.1929C11.2781 56.3576 11.4674 56.5188 11.6591 56.6776C11.7919 56.787 11.9271 56.8953 12.0612 57.0023L10.7384 55.8823Z" fill="white"/>
<path d="M47.623 15.5141C52.4895 20.1024 55.1467 26.8741 54.6446 33.5541C54.4259 36.8635 53.4642 40.1306 51.8405 43.0377C50.7411 44.833 49.4184 46.4424 48.2356 47.7059C48.2438 47.7165 48.2532 47.7294 48.2615 47.74C49.4513 46.473 50.7835 44.8541 51.891 43.0459C53.5159 40.1388 54.4765 36.8706 54.6964 33.56C55.1972 26.8777 52.54 20.1047 47.6736 15.5165L53.6923 8.52706C53.6829 8.51882 53.6735 8.50941 53.6641 8.5L47.623 15.5141Z" fill="white"/>
<path d="M63.992 31.32C63.9896 31.2223 63.9873 31.1235 63.9849 31.0259C63.9791 30.84 63.972 30.6529 63.9638 30.4682C63.9602 30.3859 63.9555 30.3035 63.9508 30.2212C63.9403 30.0341 63.9285 29.8482 63.9156 29.6623C63.9085 29.5647 63.9003 29.467 63.8932 29.3694C63.8803 29.2117 63.8662 29.0541 63.8509 28.8964C63.8368 28.747 63.8203 28.5976 63.8039 28.4494C63.7933 28.3541 63.7827 28.26 63.771 28.1647C63.7463 27.9541 63.7169 27.7447 63.6875 27.5353C63.6063 26.9611 63.5088 26.3882 63.3947 25.8188C62.1167 19.1988 58.647 13.0623 53.7112 8.50232L53.6901 8.52703L47.6714 15.5164C52.5378 20.1047 55.1962 26.8788 54.6941 33.56C54.4755 36.8706 53.5137 40.1376 51.8888 43.0459C50.7812 44.8529 49.4491 46.4717 48.2593 47.74C48.592 48.1765 48.9671 48.7635 49.3339 49.4741C50.3568 51.4541 51.3139 54.3882 51.1175 57.6565C52.0487 56.9647 52.9423 56.2223 53.7935 55.4341C53.8382 55.3918 53.8841 55.3506 53.9287 55.3082C54.0604 55.1847 54.1898 55.06 54.3179 54.9341C54.4026 54.8518 54.4884 54.7694 54.5719 54.6859C54.6506 54.607 54.7294 54.527 54.8082 54.447C54.9281 54.3247 55.0481 54.2035 55.1668 54.08C55.175 54.0717 55.1821 54.0635 55.1903 54.0541C55.623 53.5988 56.0416 53.1294 56.4472 52.6494C56.5542 52.5235 56.6612 52.3976 56.7646 52.2694C56.7964 52.2306 56.827 52.1917 56.8587 52.1529C57.1973 51.7329 57.5265 51.3047 57.844 50.8659C58.1379 50.4694 58.4189 50.0659 58.6929 49.6553C58.7587 49.5553 58.8246 49.4565 58.8892 49.3565C58.941 49.2765 58.9915 49.1965 59.0433 49.1153C59.1491 48.947 59.2549 48.78 59.3584 48.6094C59.3689 48.5917 59.3795 48.5729 59.3913 48.5553C59.7816 47.9106 60.1496 47.2517 60.4941 46.5788C60.5423 46.4847 60.5882 46.3894 60.6352 46.2941C60.6987 46.167 60.7622 46.0412 60.8245 45.9141C62.7234 41.967 63.7968 37.6212 63.9732 33.2376C63.9744 33.2164 63.9744 33.1964 63.9755 33.1753C63.9838 32.9588 63.9885 32.7435 63.9932 32.527C63.9943 32.4259 63.9967 32.3235 63.9967 32.2212C63.9979 32.0776 63.9979 31.9353 63.9967 31.7917C63.9967 31.6364 63.9955 31.4776 63.992 31.32Z" fill="white"/>
<path d="M5.93789 50.5224C3.838 47.5671 2.2284 44.24 1.22548 40.6588C1.20196 40.5765 1.1808 40.4941 1.15846 40.4118C1.11614 40.2577 1.07381 40.1024 1.03383 39.9471C0.437727 37.6365 0.102637 35.2588 0.0509044 32.8647C0.0462014 32.6988 0.0450256 32.5329 0.0438499 32.3659C0.0438499 32.3224 0.0414984 32.2788 0.0414984 32.2353C0.0414984 32.2282 0.0414984 32.2224 0.0414984 32.2153C0.0414984 32.1435 0.0391469 32.0718 0.0391469 32C0.0391469 31.9259 0.0414984 31.8518 0.0414984 31.7777C0.0450256 29.9529 0.213158 28.1353 0.53649 26.3447C0.541193 26.3177 0.547071 26.2906 0.551774 26.2635C0.589398 26.0577 0.628198 25.8518 0.66935 25.6471C2.01911 18.94 5.46642 12.9929 10.2952 8.51765L10.2799 8.5L9.9766 8.78941C3.61578 14.7694 -0.114877 23.4612 0.00269856 32.2282C0.00622582 40.453 3.39709 48.5459 9.13711 54.3918L9.62505 54.8447C8.26706 53.5188 7.03369 52.0694 5.93789 50.5224Z" fill="white"/>
<path d="M0.67041 25.647C1.97785 19.247 5.2629 13.2612 10.02 8.79174L10.301 8.5235L10.2963 8.5188C5.46748 12.9929 2.02135 18.94 0.67041 25.647Z" fill="white"/>
<path d="M0.0390625 31.9999C0.0390625 32.0717 0.0414154 32.1435 0.0414154 32.2152C0.0390625 32.0694 0.0414154 31.9235 0.0414154 31.7776C0.0414154 31.8517 0.0390625 31.9258 0.0390625 31.9999Z" fill="white"/>
<path d="M5.938 50.5223C3.824 47.5341 2.22145 44.1835 1.22559 40.6588C2.2285 44.24 3.83928 47.5671 5.938 50.5223Z" fill="white"/>
<path d="M1.03371 39.9471C0.452888 37.6742 0.115448 35.3036 0.0507812 32.8647C0.102514 35.2589 0.437603 37.6365 1.03371 39.9471Z" fill="white"/>
<path d="M5.93799 50.5223C7.03261 52.0706 8.26715 53.5188 9.62397 54.8459L9.74037 54.9541C8.34475 53.5965 7.06906 52.1141 5.93799 50.5223Z" fill="white"/>
<path d="M12.0635 57.0035L12.1046 57.0388C12.415 57.2871 12.729 57.5306 13.0488 57.7671L13.0499 57.7635C12.716 57.5165 12.3868 57.2635 12.0635 57.0035Z" fill="white"/>
<path d="M0.0429688 31.7777C0.055902 29.9247 0.224034 28.1094 0.53796 26.3447C0.213453 28.1341 0.0453203 29.953 0.0429688 31.7777Z" fill="white"/>
<path d="M0.0429688 32.2353C0.0429688 32.2789 0.0441452 32.3224 0.0453217 32.3659C0.0453217 32.3153 0.0441452 32.2659 0.0429688 32.2153C0.0429688 32.2224 0.0429688 32.2283 0.0429688 32.2353Z" fill="white"/>
<path fill-rule="evenodd" clip-rule="evenodd" d="M10.5045 24.5023C10.8891 23.3963 11.3625 22.3207 11.9247 21.2894C13.064 19.1482 14.5725 17.1929 16.322 15.5141L16.3214 15.5134C14.5722 17.1933 13.0639 19.1472 11.9247 21.2894C11.3625 22.3207 10.8891 23.3963 10.5045 24.5023ZM16.0904 48.1306L15.6765 49.4435C14.8993 50.9517 14.148 52.9494 13.8729 55.16C13.7459 56.18 13.7212 57.2447 13.84 58.327C13.5743 58.1423 13.3109 57.9553 13.0511 57.7635C12.716 57.5164 12.3879 57.2623 12.0634 57.0035L10.7395 55.8823L9.74132 54.9541C8.34453 53.5964 7.07001 52.1141 5.93894 50.5223C3.82494 47.5329 2.22357 44.1823 1.22653 40.6588C1.21085 40.6039 1.19622 40.549 1.18159 40.4941C1.17427 40.4666 1.16696 40.4392 1.15951 40.4117L1.14592 40.3619C1.10815 40.2234 1.07058 40.0857 1.03488 39.947C0.454062 37.6741 0.116621 35.3035 0.051955 32.8647C0.0488222 32.7542 0.0477762 32.6431 0.0467319 32.5323C0.0462085 32.4767 0.0456856 32.4212 0.0449005 32.3658L0.0448223 32.3625C0.0436732 32.3131 0.042549 32.2647 0.042549 32.2153C0.0409814 32.118 0.0415039 32.0207 0.0420265 31.9235C0.0422877 31.8749 0.042549 31.8262 0.042549 31.7776C0.0554823 29.9247 0.222439 28.1094 0.53754 26.3447C0.539892 26.3311 0.542536 26.3176 0.545181 26.3041C0.547827 26.2906 0.550473 26.277 0.552825 26.2635L0.552842 26.2634C0.590461 26.0575 0.62808 25.8517 0.6704 25.647C1.97784 19.247 5.26289 13.2611 10.0212 8.79054L10.3022 8.52231L10.3027 8.52295L10.3233 8.50232L16.3643 15.5164C14.6136 17.1964 13.1052 19.1517 11.9659 21.2941C8.31985 27.9811 8.41038 36.5317 12.1987 43.1447C13.6225 45.4494 15.1051 47.127 16.3126 48.3188C16.1045 48.6529 15.8905 49.0294 15.6765 49.4435L16.0904 48.1306Z" fill="white"/>
<path d="M49.2314 58.9577C49.2738 58.9318 49.3161 58.9048 49.3585 58.8777C49.3585 58.8765 49.3585 58.8754 49.3585 58.8754C49.315 58.9024 49.2738 58.9307 49.2314 58.9577Z" fill="white"/>
<path d="M15.6768 59.5094C19.3087 61.6741 23.405 63.14 27.7823 63.72C27.9281 63.7388 28.0727 63.7576 28.2185 63.7741C28.2432 63.7776 28.2691 63.78 28.2937 63.7823C28.5019 63.8059 28.7111 63.8271 28.9192 63.8471C24.255 63.3871 19.7014 61.8953 15.6768 59.5094Z" fill="white"/>
<path opacity="0.05" d="M32.0197 64C32.0538 64 32.0867 63.9988 32.1208 63.9988C31.995 63.9988 31.868 63.9976 31.7422 63.9965C31.8351 63.9976 31.9268 64 32.0197 64Z" fill="white"/>
<path opacity="0.05" d="M33.0142 63.9836C34.1229 63.9494 35.2175 63.8589 36.2957 63.7153C35.7301 63.7894 35.1634 63.8483 34.5932 63.8906C34.0676 63.9353 33.5409 63.9659 33.0142 63.9836Z" fill="white"/>
<path d="M32.4899 40.706C37.7496 40.706 42.0135 36.4658 42.0135 31.2354C42.0135 26.0049 37.7496 21.7648 32.4899 21.7648C27.2302 21.7648 22.9663 26.0049 22.9663 31.2354C22.9663 36.4658 27.2302 40.706 32.4899 40.706Z" fill="white"/>
<path d="M47.1178 48.9412C47.0319 48.8118 46.9294 48.6765 46.8377 48.5506C46.7554 48.4389 46.6743 48.3259 46.5884 48.2154C44.719 45.8212 42.0641 43.7577 39.0142 42.7048C38.1912 42.4212 37.3118 42.4777 36.5228 42.873C36.5193 42.8754 36.5158 42.8765 36.5123 42.8789C35.0179 43.6283 34.1278 43.8471 32.4888 43.8459C30.851 43.8471 30.1938 43.6283 28.7006 42.8789C28.697 42.8765 28.6935 42.8754 28.69 42.873C27.9022 42.4765 27.0228 42.4201 26.1986 42.7048C23.1498 43.7577 20.4938 45.8212 18.6255 48.2154C18.5185 48.3542 18.4151 48.4954 18.3128 48.6365L18.3222 48.6471C18.0965 48.9565 17.8907 49.2777 17.7014 49.6071C15.7802 52.953 15.6768 57.1483 15.6768 59.5095C19.7002 61.8954 24.255 63.3871 28.9181 63.8471C36.1489 64.5236 43.2952 62.6695 49.2315 58.9577C49.2739 58.9307 49.3162 58.9024 49.3585 58.8754C49.3303 56.293 49.2024 52.0954 47.1178 48.9412Z" fill="white"/>
<path opacity="0.05" d="M28.2935 63.7823C28.6133 63.82 28.9354 63.8506 29.2587 63.8776C29.1459 63.8671 29.0318 63.8576 28.919 63.8459C28.7097 63.8271 28.5016 63.8059 28.2935 63.7823Z" fill="white"/>
</svg>
