<svg xmlns="http://www.w3.org/2000/svg" width="750" height="750" fill="none"><g clip-path="url(#a)"><path fill="#EAEAEA" d="M748.125 0H1.875C.8395 0 0 .8395 0 1.875v746.25C0 749.161.8395 750 1.875 750h746.25c1.036 0 1.875-.839 1.875-1.875V1.875C750 .8395 749.161 0 748.125 0Z"/><g opacity=".5"><g opacity=".5"><path fill="#FAFAFA" d="M374.433 511.483c-75.454 0-136.621-61.167-136.621-136.62 0-75.454 61.167-136.621 136.621-136.621 75.453 0 136.62 61.167 136.62 136.621 0 75.453-61.167 136.62-136.62 136.62Z"/><path stroke="#C9C9C9" stroke-width="2.418" d="M374.433 511.483c-75.454 0-136.621-61.167-136.621-136.62 0-75.454 61.167-136.621 136.621-136.621 75.453 0 136.62 61.167 136.62 136.621 0 75.453-61.167 136.62-136.62 136.62Z"/></g><path stroke="url(#b)" stroke-width="2.418" d="M179.709 571.579 571.15 180.138"/><path stroke="url(#c)" stroke-width="2.418" d="M178.57 373.654h391.726"/><path stroke="url(#d)" stroke-width="2.418" d="M373.224 570.725V179"/><path stroke="url(#e)" stroke-width="2.418" d="M569.441 571.58 178 180.14"/><path fill="#fff" d="M374.433 431.687c-31.384 0-56.825-25.441-56.825-56.824 0-31.384 25.441-56.825 56.825-56.825 31.383 0 56.824 25.441 56.824 56.825 0 31.383-25.441 56.824-56.824 56.824Z"/><mask id="f" width="39" height="40" x="355" y="355" maskUnits="userSpaceOnUse" style="mask-type:luminance"><path fill="#fff" d="M355.088 355.518h38.689v38.689h-38.689v-38.689Z"/></mask><g mask="url(#f)"><path fill="#666" fill-rule="evenodd" d="M390.15 361.563h-31.434v16.176l3.553-3.554.531-.531h9.068l.074-.074 8.463-8.463h2.565l7.18 7.181v-10.735Zm-15.715 14.654 3.698 3.699 1.283 1.282-2.565 2.565-1.282-1.283-5.2-5.199h-6.066l-5.514 5.514-.073.073v2.876c0 .641.255 1.256.708 1.709.454.454 1.069.709 1.71.709h26.598c.641 0 1.256-.255 1.71-.709.453-.453.708-1.068.708-1.709v-8.317l-8.463-8.463-7.181 7.181-.071.072Zm-19.347 5.442v4.085a6.0409 6.0409 0 0 0 1.771 4.274 6.0397 6.0397 0 0 0 1.961 1.311c.734.303 1.52.46 2.314.46h26.598a6.044 6.044 0 0 0 5.585-3.732c.304-.733.46-1.52.46-2.313v-7.108l1.356-1.355-1.282-1.283-.074-.073v-17.989h-38.689v23.43l-.146.146.146.147Z" clip-rule="evenodd"/></g><path stroke="#C9C9C9" stroke-width="2.418" d="M374.433 431.687c-31.384 0-56.825-25.441-56.825-56.824 0-31.384 25.441-56.825 56.825-56.825 31.383 0 56.824 25.441 56.824 56.825 0 31.383-25.441 56.824-56.824 56.824Z"/></g></g><defs><linearGradient id="b" x1="-nan" x2="-nan" y1="-nan" y2="-nan" gradientUnits="userSpaceOnUse"><stop stop-color="#C9C9C9" stop-opacity="0"/><stop offset=".208" stop-color="#C9C9C9"/><stop offset=".792" stop-color="#C9C9C9"/><stop offset="1" stop-color="#C9C9C9" stop-opacity="0"/></linearGradient><linearGradient id="c" x1="-nan" x2="-nan" y1="-nan" y2="-nan" gradientUnits="userSpaceOnUse"><stop stop-color="#C9C9C9" stop-opacity="0"/><stop offset=".208" stop-color="#C9C9C9"/><stop offset=".792" stop-color="#C9C9C9"/><stop offset="1" stop-color="#C9C9C9" stop-opacity="0"/></linearGradient><linearGradient id="d" x1="-nan" x2="-nan" y1="-nan" y2="-nan" gradientUnits="userSpaceOnUse"><stop stop-color="#C9C9C9" stop-opacity="0"/><stop offset=".208" stop-color="#C9C9C9"/><stop offset=".792" stop-color="#C9C9C9"/><stop offset="1" stop-color="#C9C9C9" stop-opacity="0"/></linearGradient><linearGradient id="e" x1="178.574" x2="570.696" y1="178.886" y2="571.003" gradientUnits="userSpaceOnUse"><stop stop-color="#C9C9C9" stop-opacity="0"/><stop offset=".208" stop-color="#C9C9C9"/><stop offset=".792" stop-color="#C9C9C9"/><stop offset="1" stop-color="#C9C9C9" stop-opacity="0"/></linearGradient><clipPath id="a"><path fill="#fff" d="M0 0h750v750H0z"/></clipPath></defs></svg>