<svg width="64" height="64" viewBox="0 0 64 64" fill="none" xmlns="http://www.w3.org/2000/svg">
<g clip-path="url(#clip0_47_317)">
<mask id="mask0_47_317" style="mask-type:luminance" maskUnits="userSpaceOnUse" x="0" y="0" width="64" height="64">
<path fill-rule="evenodd" clip-rule="evenodd" d="M31.9405 0.12128C49.5799 0.12128 63.8792 14.4208 63.8792 32.0602C63.8792 49.6996 49.5799 63.999 31.9405 63.999C14.301 63.999 0.00146484 49.6996 0.00146484 32.0602C0.00146484 14.4208 14.301 0.12128 31.9405 0.12128Z" fill="white"/>
</mask>
<g mask="url(#mask0_47_317)">
<path d="M31.9405 0.12128C49.5799 0.12128 63.8792 14.4208 63.8792 32.0602C63.8792 49.6996 49.5799 63.999 31.9405 63.999C14.301 63.999 0.00146484 49.6996 0.00146484 32.0602C0.00146484 14.4208 14.301 0.12128 31.9405 0.12128Z" fill="url(#paint0_linear_47_317)"/>
</g>
<path fill-rule="evenodd" clip-rule="evenodd" d="M22.1962 35.0009C22.4048 35.0009 22.6115 35.0085 22.8164 35.0221L30.3844 23.9325C30.3844 17.2064 35.837 11.7536 42.5633 11.7536C49.2892 11.7536 54.742 17.2064 54.742 23.9325C54.742 30.6586 49.2892 36.1112 42.5633 36.1112C42.4696 36.1112 42.3763 36.1096 42.2832 36.1076L31.4807 43.789L31.4805 43.7885C31.4895 43.9577 31.4947 44.1279 31.4947 44.2993C31.4947 49.4348 27.3318 53.5977 22.1962 53.5977C17.6288 53.5977 13.8309 50.3048 13.0465 45.9636L1.30362 41.1223C0.226155 37.4529 -0.207472 33.6312 0.0930558 29.6028L16.8586 36.6852C18.3693 35.6242 20.2099 35.0009 22.1962 35.0009ZM42.5996 17.7416C45.9986 17.7416 48.754 20.497 48.754 23.896C48.754 27.295 45.9986 30.0503 42.5996 30.0503C39.2006 30.0503 36.4452 27.295 36.4452 23.896C36.4452 20.497 39.2006 17.7416 42.5996 17.7416ZM42.5996 15.8385C47.0496 15.8385 50.6571 19.4459 50.6571 23.896C50.6571 28.346 47.0496 31.9537 42.5996 31.9537C38.1493 31.9537 34.5419 28.346 34.5419 23.896C34.5419 19.4459 38.1493 15.8385 42.5996 15.8385ZM22.1962 37.4518C25.9781 37.4518 29.0435 40.5175 29.0435 44.2992C29.0435 48.081 25.9781 51.1466 22.1962 51.1466C19.4398 51.1466 17.0643 49.5178 15.9784 47.1702C17.5622 47.8221 20.3658 49.2642 21.9835 49.2642C24.7835 49.2642 27.0534 46.9941 27.0534 44.1941C27.0534 39.9192 22.8768 39.2271 19.7448 37.9043C20.506 37.6123 21.3324 37.4518 22.1962 37.4518Z" fill="#FEFEFE"/>
</g>
<defs>
<linearGradient id="paint0_linear_47_317" x1="31.9405" y1="63.999" x2="31.9405" y2="0.12128" gradientUnits="userSpaceOnUse">
<stop stop-color="#1886B8"/>
<stop offset="0.25" stop-color="#154E82"/>
<stop offset="0.5" stop-color="#112659"/>
<stop offset="0.75" stop-color="#03173C"/>
<stop offset="1" stop-color="#111B2E"/>
</linearGradient>
<clipPath id="clip0_47_317">
<rect width="64" height="64" fill="white"/>
</clipPath>
</defs>
</svg>
